<mxfile host="app.diagrams.net" modified="2022-02-09T15:21:49.556Z" agent="5.0 (Macintosh; Intel Mac OS X 10_15_7) AppleWebKit/537.36 (KHTML, like Gecko) Chrome/98.0.4758.80 Safari/537.36" etag="Btcw2DveYcVY5UPErmMB" version="16.5.4" type="github" pages="2">
  <diagram name="activity図" id="74e2e168-ea6b-b213-b513-2b3c1d86103e">
    <mxGraphModel dx="932" dy="2388" grid="1" gridSize="10" guides="1" tooltips="1" connect="1" arrows="1" fold="1" page="1" pageScale="1" pageWidth="1100" pageHeight="850" background="none" math="0" shadow="0">
      <root>
        <mxCell id="0" />
        <mxCell id="1" parent="0" />
        <mxCell id="77e6c97f196da883-1" value="Pool" style="swimlane;html=1;childLayout=stackLayout;startSize=20;rounded=0;shadow=0;labelBackgroundColor=none;strokeWidth=1;fontFamily=Verdana;fontSize=8;align=center;" parent="1" vertex="1">
          <mxGeometry x="90" y="-350" width="820" height="1100" as="geometry" />
        </mxCell>
        <mxCell id="77e6c97f196da883-2" value="質問者" style="swimlane;html=1;startSize=20;" parent="77e6c97f196da883-1" vertex="1">
          <mxGeometry y="20" width="210" height="1080" as="geometry" />
        </mxCell>
        <mxCell id="i5d_LI0MWZZKiG_TL_GB-69" style="edgeStyle=orthogonalEdgeStyle;rounded=0;orthogonalLoop=1;jettySize=auto;html=1;entryX=0.5;entryY=0;entryDx=0;entryDy=0;" parent="77e6c97f196da883-2" source="i5d_LI0MWZZKiG_TL_GB-16" target="77e6c97f196da883-8" edge="1">
          <mxGeometry relative="1" as="geometry" />
        </mxCell>
        <mxCell id="i5d_LI0MWZZKiG_TL_GB-16" value="" style="ellipse;whiteSpace=wrap;html=1;aspect=fixed;fillColor=#000000;" parent="77e6c97f196da883-2" vertex="1">
          <mxGeometry x="95" y="30" width="20" height="20" as="geometry" />
        </mxCell>
        <mxCell id="i5d_LI0MWZZKiG_TL_GB-22" style="edgeStyle=orthogonalEdgeStyle;rounded=0;orthogonalLoop=1;jettySize=auto;html=1;entryX=0.5;entryY=0;entryDx=0;entryDy=0;" parent="77e6c97f196da883-2" source="77e6c97f196da883-8" target="i5d_LI0MWZZKiG_TL_GB-14" edge="1">
          <mxGeometry relative="1" as="geometry" />
        </mxCell>
        <mxCell id="77e6c97f196da883-8" value="ログイン" style="rounded=0;whiteSpace=wrap;html=1;shadow=0;labelBackgroundColor=none;strokeWidth=1;fontFamily=Verdana;fontSize=8;align=center;" parent="77e6c97f196da883-2" vertex="1">
          <mxGeometry x="55" y="80" width="100" height="60" as="geometry" />
        </mxCell>
        <mxCell id="i5d_LI0MWZZKiG_TL_GB-36" style="edgeStyle=orthogonalEdgeStyle;rounded=0;orthogonalLoop=1;jettySize=auto;html=1;entryX=0.5;entryY=0;entryDx=0;entryDy=0;" parent="77e6c97f196da883-2" source="i5d_LI0MWZZKiG_TL_GB-19" target="i5d_LI0MWZZKiG_TL_GB-34" edge="1">
          <mxGeometry relative="1" as="geometry" />
        </mxCell>
        <mxCell id="i5d_LI0MWZZKiG_TL_GB-19" value="Home画面に遷移" style="rounded=0;whiteSpace=wrap;html=1;shadow=0;labelBackgroundColor=none;strokeWidth=1;fontFamily=Verdana;fontSize=8;align=center;" parent="77e6c97f196da883-2" vertex="1">
          <mxGeometry x="55" y="290" width="100" height="60" as="geometry" />
        </mxCell>
        <mxCell id="i5d_LI0MWZZKiG_TL_GB-23" value="Yes" style="edgeStyle=orthogonalEdgeStyle;rounded=0;orthogonalLoop=1;jettySize=auto;html=1;entryX=0.5;entryY=0;entryDx=0;entryDy=0;" parent="77e6c97f196da883-2" source="i5d_LI0MWZZKiG_TL_GB-14" target="i5d_LI0MWZZKiG_TL_GB-19" edge="1">
          <mxGeometry relative="1" as="geometry" />
        </mxCell>
        <mxCell id="i5d_LI0MWZZKiG_TL_GB-14" value="アカウントがある" style="rhombus;whiteSpace=wrap;html=1;" parent="77e6c97f196da883-2" vertex="1">
          <mxGeometry x="45" y="170" width="120" height="60" as="geometry" />
        </mxCell>
        <mxCell id="i5d_LI0MWZZKiG_TL_GB-34" value="質問をする" style="rounded=0;whiteSpace=wrap;html=1;shadow=0;labelBackgroundColor=none;strokeWidth=1;fontFamily=Verdana;fontSize=8;align=center;" parent="77e6c97f196da883-2" vertex="1">
          <mxGeometry x="55" y="420" width="100" height="60" as="geometry" />
        </mxCell>
        <mxCell id="i5d_LI0MWZZKiG_TL_GB-40" value="・応対者数&lt;br&gt;・質問者数&lt;br&gt;・予想待ち時間&lt;br&gt;の表示" style="rounded=0;whiteSpace=wrap;html=1;shadow=0;labelBackgroundColor=none;strokeWidth=1;fontFamily=Verdana;fontSize=8;align=center;" parent="77e6c97f196da883-2" vertex="1">
          <mxGeometry x="55" y="640" width="100" height="60" as="geometry" />
        </mxCell>
        <mxCell id="i5d_LI0MWZZKiG_TL_GB-59" value="YES" style="edgeStyle=orthogonalEdgeStyle;rounded=0;orthogonalLoop=1;jettySize=auto;html=1;entryX=0.5;entryY=0;entryDx=0;entryDy=0;" parent="77e6c97f196da883-2" source="i5d_LI0MWZZKiG_TL_GB-56" target="i5d_LI0MWZZKiG_TL_GB-58" edge="1">
          <mxGeometry relative="1" as="geometry" />
        </mxCell>
        <mxCell id="i5d_LI0MWZZKiG_TL_GB-56" value="解決した" style="rhombus;whiteSpace=wrap;html=1;" parent="77e6c97f196da883-2" vertex="1">
          <mxGeometry x="50" y="740" width="100" height="70" as="geometry" />
        </mxCell>
        <mxCell id="i5d_LI0MWZZKiG_TL_GB-68" style="edgeStyle=orthogonalEdgeStyle;rounded=0;orthogonalLoop=1;jettySize=auto;html=1;entryX=0.5;entryY=0;entryDx=0;entryDy=0;" parent="77e6c97f196da883-2" source="i5d_LI0MWZZKiG_TL_GB-58" target="i5d_LI0MWZZKiG_TL_GB-66" edge="1">
          <mxGeometry relative="1" as="geometry" />
        </mxCell>
        <mxCell id="i5d_LI0MWZZKiG_TL_GB-58" value="������ボタンを押す" style="rounded=0;whiteSpace=wrap;html=1;shadow=0;labelBackgroundColor=none;strokeWidth=1;fontFamily=Verdana;fontSize=8;align=center;" parent="77e6c97f196da883-2" vertex="1">
          <mxGeometry x="50" y="860" width="100" height="60" as="geometry" />
        </mxCell>
        <mxCell id="i5d_LI0MWZZKiG_TL_GB-66" value="" style="ellipse;whiteSpace=wrap;html=1;aspect=fixed;fillColor=#000000;" parent="77e6c97f196da883-2" vertex="1">
          <mxGeometry x="90" y="970" width="20" height="20" as="geometry" />
        </mxCell>
        <mxCell id="i5d_LI0MWZZKiG_TL_GB-24" value="No" style="edgeStyle=orthogonalEdgeStyle;rounded=0;orthogonalLoop=1;jettySize=auto;html=1;entryX=0;entryY=0.5;entryDx=0;entryDy=0;" parent="77e6c97f196da883-1" source="i5d_LI0MWZZKiG_TL_GB-14" target="i5d_LI0MWZZKiG_TL_GB-21" edge="1">
          <mxGeometry relative="1" as="geometry" />
        </mxCell>
        <mxCell id="i5d_LI0MWZZKiG_TL_GB-26" style="edgeStyle=orthogonalEdgeStyle;rounded=0;orthogonalLoop=1;jettySize=auto;html=1;exitX=0.5;exitY=1;exitDx=0;exitDy=0;" parent="77e6c97f196da883-1" source="i5d_LI0MWZZKiG_TL_GB-21" edge="1">
          <mxGeometry relative="1" as="geometry">
            <mxPoint x="160" y="340" as="targetPoint" />
            <Array as="points">
              <mxPoint x="340" y="250" />
              <mxPoint x="340" y="340" />
            </Array>
          </mxGeometry>
        </mxCell>
        <mxCell id="i5d_LI0MWZZKiG_TL_GB-29" value="No" style="edgeStyle=orthogonalEdgeStyle;rounded=0;orthogonalLoop=1;jettySize=auto;html=1;entryX=1;entryY=0.5;entryDx=0;entryDy=0;" parent="77e6c97f196da883-1" source="i5d_LI0MWZZKiG_TL_GB-27" target="i5d_LI0MWZZKiG_TL_GB-21" edge="1">
          <mxGeometry relative="1" as="geometry" />
        </mxCell>
        <mxCell id="i5d_LI0MWZZKiG_TL_GB-30" style="edgeStyle=orthogonalEdgeStyle;rounded=0;orthogonalLoop=1;jettySize=auto;html=1;entryX=0;entryY=0.75;entryDx=0;entryDy=0;exitX=0.5;exitY=1;exitDx=0;exitDy=0;" parent="77e6c97f196da883-1" source="i5d_LI0MWZZKiG_TL_GB-21" target="i5d_LI0MWZZKiG_TL_GB-20" edge="1">
          <mxGeometry relative="1" as="geometry" />
        </mxCell>
        <mxCell id="i5d_LI0MWZZKiG_TL_GB-37" style="edgeStyle=orthogonalEdgeStyle;rounded=0;orthogonalLoop=1;jettySize=auto;html=1;entryX=0;entryY=0.5;entryDx=0;entryDy=0;" parent="77e6c97f196da883-1" source="i5d_LI0MWZZKiG_TL_GB-34" target="i5d_LI0MWZZKiG_TL_GB-43" edge="1">
          <mxGeometry relative="1" as="geometry">
            <mxPoint x="260" y="490" as="targetPoint" />
          </mxGeometry>
        </mxCell>
        <mxCell id="i5d_LI0MWZZKiG_TL_GB-41" style="edgeStyle=orthogonalEdgeStyle;rounded=0;orthogonalLoop=1;jettySize=auto;html=1;entryX=1;entryY=0.75;entryDx=0;entryDy=0;exitX=0.5;exitY=1;exitDx=0;exitDy=0;" parent="77e6c97f196da883-1" source="i5d_LI0MWZZKiG_TL_GB-35" target="i5d_LI0MWZZKiG_TL_GB-40" edge="1">
          <mxGeometry relative="1" as="geometry" />
        </mxCell>
        <mxCell id="i5d_LI0MWZZKiG_TL_GB-42" value="NO" style="edgeLabel;html=1;align=center;verticalAlign=middle;resizable=0;points=[];" parent="i5d_LI0MWZZKiG_TL_GB-41" vertex="1" connectable="0">
          <mxGeometry x="0.169" y="-3" relative="1" as="geometry">
            <mxPoint as="offset" />
          </mxGeometry>
        </mxCell>
        <mxCell id="77e6c97f196da883-3" value="システム" style="swimlane;html=1;startSize=20;" parent="77e6c97f196da883-1" vertex="1">
          <mxGeometry x="210" y="20" width="280" height="1080" as="geometry" />
        </mxCell>
        <mxCell id="i5d_LI0MWZZKiG_TL_GB-21" value="アカウント情報の&lt;br&gt;登録" style="rounded=0;whiteSpace=wrap;html=1;shadow=0;labelBackgroundColor=none;strokeWidth=1;fontFamily=Verdana;fontSize=8;align=center;" parent="77e6c97f196da883-3" vertex="1">
          <mxGeometry x="95" y="170" width="100" height="60" as="geometry" />
        </mxCell>
        <mxCell id="i5d_LI0MWZZKiG_TL_GB-31" value="アカウント" style="shape=document;whiteSpace=wrap;html=1;boundedLbl=1;" parent="77e6c97f196da883-3" vertex="1">
          <mxGeometry x="150" y="220" width="90" height="60" as="geometry" />
        </mxCell>
        <mxCell id="i5d_LI0MWZZKiG_TL_GB-35" value="応対者が空いている" style="rhombus;whiteSpace=wrap;html=1;" parent="77e6c97f196da883-3" vertex="1">
          <mxGeometry x="65" y="540" width="150" height="90" as="geometry" />
        </mxCell>
        <mxCell id="i5d_LI0MWZZKiG_TL_GB-52" style="edgeStyle=orthogonalEdgeStyle;rounded=0;orthogonalLoop=1;jettySize=auto;html=1;" parent="77e6c97f196da883-3" source="i5d_LI0MWZZKiG_TL_GB-43" target="i5d_LI0MWZZKiG_TL_GB-35" edge="1">
          <mxGeometry relative="1" as="geometry" />
        </mxCell>
        <mxCell id="i5d_LI0MWZZKiG_TL_GB-43" value="お問い合わせの作成" style="rounded=0;whiteSpace=wrap;html=1;shadow=0;labelBackgroundColor=none;strokeWidth=1;fontFamily=Verdana;fontSize=8;align=center;" parent="77e6c97f196da883-3" vertex="1">
          <mxGeometry x="90" y="420" width="100" height="60" as="geometry" />
        </mxCell>
        <mxCell id="i5d_LI0MWZZKiG_TL_GB-45" value="お問い合わせ&lt;br&gt;(未完)" style="shape=document;whiteSpace=wrap;html=1;boundedLbl=1;" parent="77e6c97f196da883-3" vertex="1">
          <mxGeometry x="150" y="460" width="90" height="60" as="geometry" />
        </mxCell>
        <mxCell id="i5d_LI0MWZZKiG_TL_GB-62" value="お問い合わせの&lt;br&gt;Status更新&lt;br&gt;(完了）" style="rounded=0;whiteSpace=wrap;html=1;shadow=0;labelBackgroundColor=none;strokeWidth=1;fontFamily=Verdana;fontSize=8;align=center;" parent="77e6c97f196da883-3" vertex="1">
          <mxGeometry x="95" y="860" width="100" height="60" as="geometry" />
        </mxCell>
        <mxCell id="i5d_LI0MWZZKiG_TL_GB-72" value="メッセージ" style="shape=document;whiteSpace=wrap;html=1;boundedLbl=1;" parent="77e6c97f196da883-3" vertex="1">
          <mxGeometry x="190" y="500" width="70" height="40" as="geometry" />
        </mxCell>
        <mxCell id="i5d_LI0MWZZKiG_TL_GB-82" value="メッセージ" style="shape=document;whiteSpace=wrap;html=1;boundedLbl=1;" parent="77e6c97f196da883-3" vertex="1">
          <mxGeometry x="180" y="750" width="70" height="40" as="geometry" />
        </mxCell>
        <mxCell id="77e6c97f196da883-4" value="応対者" style="swimlane;html=1;startSize=20;" parent="77e6c97f196da883-1" vertex="1">
          <mxGeometry x="490" y="20" width="330" height="1080" as="geometry" />
        </mxCell>
        <mxCell id="i5d_LI0MWZZKiG_TL_GB-70" style="edgeStyle=orthogonalEdgeStyle;rounded=0;orthogonalLoop=1;jettySize=auto;html=1;entryX=0.5;entryY=0;entryDx=0;entryDy=0;" parent="77e6c97f196da883-4" source="i5d_LI0MWZZKiG_TL_GB-15" target="i5d_LI0MWZZKiG_TL_GB-18" edge="1">
          <mxGeometry relative="1" as="geometry" />
        </mxCell>
        <mxCell id="i5d_LI0MWZZKiG_TL_GB-15" value="" style="ellipse;whiteSpace=wrap;html=1;aspect=fixed;fillColor=#000000;" parent="77e6c97f196da883-4" vertex="1">
          <mxGeometry x="100" y="40" width="20" height="20" as="geometry" />
        </mxCell>
        <mxCell id="i5d_LI0MWZZKiG_TL_GB-28" style="edgeStyle=orthogonalEdgeStyle;rounded=0;orthogonalLoop=1;jettySize=auto;html=1;entryX=0.5;entryY=0;entryDx=0;entryDy=0;" parent="77e6c97f196da883-4" source="i5d_LI0MWZZKiG_TL_GB-18" target="i5d_LI0MWZZKiG_TL_GB-27" edge="1">
          <mxGeometry relative="1" as="geometry" />
        </mxCell>
        <mxCell id="i5d_LI0MWZZKiG_TL_GB-18" value="ログイン" style="rounded=0;whiteSpace=wrap;html=1;shadow=0;labelBackgroundColor=none;strokeWidth=1;fontFamily=Verdana;fontSize=8;align=center;" parent="77e6c97f196da883-4" vertex="1">
          <mxGeometry x="60" y="80" width="100" height="60" as="geometry" />
        </mxCell>
        <mxCell id="i5d_LI0MWZZKiG_TL_GB-47" style="edgeStyle=orthogonalEdgeStyle;rounded=0;orthogonalLoop=1;jettySize=auto;html=1;entryX=0.5;entryY=0;entryDx=0;entryDy=0;" parent="77e6c97f196da883-4" source="i5d_LI0MWZZKiG_TL_GB-20" target="i5d_LI0MWZZKiG_TL_GB-46" edge="1">
          <mxGeometry relative="1" as="geometry" />
        </mxCell>
        <mxCell id="i5d_LI0MWZZKiG_TL_GB-20" value="Home画面に遷移" style="rounded=0;whiteSpace=wrap;html=1;shadow=0;labelBackgroundColor=none;strokeWidth=1;fontFamily=Verdana;fontSize=8;align=center;" parent="77e6c97f196da883-4" vertex="1">
          <mxGeometry x="60" y="280" width="100" height="60" as="geometry" />
        </mxCell>
        <mxCell id="i5d_LI0MWZZKiG_TL_GB-33" value="Yes" style="edgeStyle=orthogonalEdgeStyle;rounded=0;orthogonalLoop=1;jettySize=auto;html=1;entryX=0.5;entryY=0;entryDx=0;entryDy=0;" parent="77e6c97f196da883-4" source="i5d_LI0MWZZKiG_TL_GB-27" target="i5d_LI0MWZZKiG_TL_GB-20" edge="1">
          <mxGeometry relative="1" as="geometry" />
        </mxCell>
        <mxCell id="i5d_LI0MWZZKiG_TL_GB-27" value="アカウントがある" style="rhombus;whiteSpace=wrap;html=1;" parent="77e6c97f196da883-4" vertex="1">
          <mxGeometry x="50" y="170" width="120" height="60" as="geometry" />
        </mxCell>
        <mxCell id="i5d_LI0MWZZKiG_TL_GB-38" value="質問に答える" style="rounded=0;whiteSpace=wrap;html=1;shadow=0;labelBackgroundColor=none;strokeWidth=1;fontFamily=Verdana;fontSize=8;align=center;" parent="77e6c97f196da883-4" vertex="1">
          <mxGeometry x="60" y="630" width="100" height="60" as="geometry" />
        </mxCell>
        <mxCell id="i5d_LI0MWZZKiG_TL_GB-49" value="ON" style="edgeStyle=orthogonalEdgeStyle;rounded=0;orthogonalLoop=1;jettySize=auto;html=1;entryX=0.5;entryY=0;entryDx=0;entryDy=0;" parent="77e6c97f196da883-4" source="i5d_LI0MWZZKiG_TL_GB-46" target="i5d_LI0MWZZKiG_TL_GB-48" edge="1">
          <mxGeometry relative="1" as="geometry" />
        </mxCell>
        <mxCell id="i5d_LI0MWZZKiG_TL_GB-46" value="応対スイッチ" style="rhombus;whiteSpace=wrap;html=1;" parent="77e6c97f196da883-4" vertex="1">
          <mxGeometry x="50" y="390" width="120" height="60" as="geometry" />
        </mxCell>
        <mxCell id="i5d_LI0MWZZKiG_TL_GB-64" style="edgeStyle=orthogonalEdgeStyle;rounded=0;orthogonalLoop=1;jettySize=auto;html=1;entryX=0.5;entryY=0;entryDx=0;entryDy=0;" parent="77e6c97f196da883-4" source="i5d_LI0MWZZKiG_TL_GB-48" target="i5d_LI0MWZZKiG_TL_GB-38" edge="1">
          <mxGeometry relative="1" as="geometry" />
        </mxCell>
        <mxCell id="i5d_LI0MWZZKiG_TL_GB-48" value="・お問い合わせ数&lt;br&gt;の表示" style="rounded=0;whiteSpace=wrap;html=1;shadow=0;labelBackgroundColor=none;strokeWidth=1;fontFamily=Verdana;fontSize=8;align=center;" parent="77e6c97f196da883-4" vertex="1">
          <mxGeometry x="60" y="510" width="100" height="60" as="geometry" />
        </mxCell>
        <mxCell id="i5d_LI0MWZZKiG_TL_GB-51" value="" style="ellipse;whiteSpace=wrap;html=1;aspect=fixed;fillColor=#000000;" parent="77e6c97f196da883-4" vertex="1">
          <mxGeometry x="240" y="410" width="20" height="20" as="geometry" />
        </mxCell>
        <mxCell id="i5d_LI0MWZZKiG_TL_GB-50" value="OFF" style="edgeStyle=orthogonalEdgeStyle;rounded=0;orthogonalLoop=1;jettySize=auto;html=1;entryX=0;entryY=0.5;entryDx=0;entryDy=0;" parent="77e6c97f196da883-4" source="i5d_LI0MWZZKiG_TL_GB-46" target="i5d_LI0MWZZKiG_TL_GB-51" edge="1">
          <mxGeometry relative="1" as="geometry">
            <mxPoint x="220" y="420" as="targetPoint" />
          </mxGeometry>
        </mxCell>
        <mxCell id="i5d_LI0MWZZKiG_TL_GB-53" style="edgeStyle=orthogonalEdgeStyle;rounded=0;orthogonalLoop=1;jettySize=auto;html=1;entryX=0;entryY=0.5;entryDx=0;entryDy=0;exitX=0.5;exitY=0;exitDx=0;exitDy=0;" parent="77e6c97f196da883-1" source="i5d_LI0MWZZKiG_TL_GB-40" target="i5d_LI0MWZZKiG_TL_GB-35" edge="1">
          <mxGeometry relative="1" as="geometry" />
        </mxCell>
        <mxCell id="i5d_LI0MWZZKiG_TL_GB-54" style="edgeStyle=orthogonalEdgeStyle;rounded=0;orthogonalLoop=1;jettySize=auto;html=1;entryX=0;entryY=0.5;entryDx=0;entryDy=0;" parent="77e6c97f196da883-1" source="i5d_LI0MWZZKiG_TL_GB-35" target="i5d_LI0MWZZKiG_TL_GB-38" edge="1">
          <mxGeometry relative="1" as="geometry" />
        </mxCell>
        <mxCell id="i5d_LI0MWZZKiG_TL_GB-55" value="YES" style="edgeLabel;html=1;align=center;verticalAlign=middle;resizable=0;points=[];" parent="i5d_LI0MWZZKiG_TL_GB-54" vertex="1" connectable="0">
          <mxGeometry x="0.2008" relative="1" as="geometry">
            <mxPoint as="offset" />
          </mxGeometry>
        </mxCell>
        <mxCell id="i5d_LI0MWZZKiG_TL_GB-57" style="edgeStyle=orthogonalEdgeStyle;rounded=0;orthogonalLoop=1;jettySize=auto;html=1;entryX=1;entryY=0.5;entryDx=0;entryDy=0;" parent="77e6c97f196da883-1" source="i5d_LI0MWZZKiG_TL_GB-38" target="i5d_LI0MWZZKiG_TL_GB-56" edge="1">
          <mxGeometry relative="1" as="geometry">
            <Array as="points">
              <mxPoint x="600" y="795" />
            </Array>
          </mxGeometry>
        </mxCell>
        <mxCell id="i5d_LI0MWZZKiG_TL_GB-60" style="edgeStyle=orthogonalEdgeStyle;rounded=0;orthogonalLoop=1;jettySize=auto;html=1;entryX=0.25;entryY=1;entryDx=0;entryDy=0;" parent="77e6c97f196da883-1" source="i5d_LI0MWZZKiG_TL_GB-56" target="i5d_LI0MWZZKiG_TL_GB-38" edge="1">
          <mxGeometry relative="1" as="geometry">
            <Array as="points">
              <mxPoint x="575" y="770" />
            </Array>
          </mxGeometry>
        </mxCell>
        <mxCell id="i5d_LI0MWZZKiG_TL_GB-61" value="NO" style="edgeLabel;html=1;align=center;verticalAlign=middle;resizable=0;points=[];" parent="i5d_LI0MWZZKiG_TL_GB-60" vertex="1" connectable="0">
          <mxGeometry x="-0.0239" y="-4" relative="1" as="geometry">
            <mxPoint as="offset" />
          </mxGeometry>
        </mxCell>
        <mxCell id="i5d_LI0MWZZKiG_TL_GB-63" style="edgeStyle=orthogonalEdgeStyle;rounded=0;orthogonalLoop=1;jettySize=auto;html=1;" parent="77e6c97f196da883-1" source="i5d_LI0MWZZKiG_TL_GB-58" target="i5d_LI0MWZZKiG_TL_GB-62" edge="1">
          <mxGeometry relative="1" as="geometry" />
        </mxCell>
        <mxCell id="i5d_LI0MWZZKiG_TL_GB-13" value="" style="shape=document;whiteSpace=wrap;html=1;boundedLbl=1;" parent="1" vertex="1">
          <mxGeometry x="200" y="-450" width="90" height="60" as="geometry" />
        </mxCell>
        <mxCell id="i5d_LI0MWZZKiG_TL_GB-17" value="" style="rounded=0;whiteSpace=wrap;html=1;shadow=0;labelBackgroundColor=none;strokeWidth=1;fontFamily=Verdana;fontSize=8;align=center;" parent="1" vertex="1">
          <mxGeometry x="380" y="-470" width="100" height="60" as="geometry" />
        </mxCell>
        <mxCell id="i5d_LI0MWZZKiG_TL_GB-71" value="" style="rhombus;whiteSpace=wrap;html=1;" parent="1" vertex="1">
          <mxGeometry x="640" y="-470" width="100" height="70" as="geometry" />
        </mxCell>
      </root>
    </mxGraphModel>
  </diagram>
  <diagram id="w9lmVdIznDJNCZTNgYBh" name="data">
    <mxGraphModel dx="1592" dy="1647" grid="1" gridSize="10" guides="1" tooltips="1" connect="1" arrows="1" fold="1" page="1" pageScale="1" pageWidth="827" pageHeight="1169" math="0" shadow="0">
      <root>
        <mxCell id="YwHavedRDH5448tyT3XH-0" />
        <mxCell id="YwHavedRDH5448tyT3XH-1" parent="YwHavedRDH5448tyT3XH-0" />
        <mxCell id="hCwhT7J0eq9PJbnfBHn2-2" value="inquiries" style="shape=table;startSize=30;container=1;collapsible=1;childLayout=tableLayout;fixedRows=1;rowLines=0;fontStyle=1;align=center;resizeLast=1;" vertex="1" parent="YwHavedRDH5448tyT3XH-1">
          <mxGeometry x="314" y="160" width="250" height="130" as="geometry" />
        </mxCell>
        <mxCell id="hCwhT7J0eq9PJbnfBHn2-3" value="" style="shape=partialRectangle;collapsible=0;dropTarget=0;pointerEvents=0;fillColor=none;points=[[0,0.5],[1,0.5]];portConstraint=eastwest;top=0;left=0;right=0;bottom=1;" vertex="1" parent="hCwhT7J0eq9PJbnfBHn2-2">
          <mxGeometry y="30" width="250" height="30" as="geometry" />
        </mxCell>
        <mxCell id="hCwhT7J0eq9PJbnfBHn2-4" value="PK" style="shape=partialRectangle;overflow=hidden;connectable=0;fillColor=none;top=0;left=0;bottom=0;right=0;fontStyle=1;" vertex="1" parent="hCwhT7J0eq9PJbnfBHn2-3">
          <mxGeometry width="30" height="30" as="geometry">
            <mxRectangle width="30" height="30" as="alternateBounds" />
          </mxGeometry>
        </mxCell>
        <mxCell id="hCwhT7J0eq9PJbnfBHn2-5" value="inquiryId   String" style="shape=partialRectangle;overflow=hidden;connectable=0;fillColor=none;top=0;left=0;bottom=0;right=0;align=left;spacingLeft=6;fontStyle=5;" vertex="1" parent="hCwhT7J0eq9PJbnfBHn2-3">
          <mxGeometry x="30" width="220" height="30" as="geometry">
            <mxRectangle width="220" height="30" as="alternateBounds" />
          </mxGeometry>
        </mxCell>
        <mxCell id="hCwhT7J0eq9PJbnfBHn2-6" value="" style="shape=partialRectangle;collapsible=0;dropTarget=0;pointerEvents=0;fillColor=none;points=[[0,0.5],[1,0.5]];portConstraint=eastwest;top=0;left=0;right=0;bottom=0;" vertex="1" parent="hCwhT7J0eq9PJbnfBHn2-2">
          <mxGeometry y="60" width="250" height="30" as="geometry" />
        </mxCell>
        <mxCell id="hCwhT7J0eq9PJbnfBHn2-7" value="FK1" style="shape=partialRectangle;overflow=hidden;connectable=0;fillColor=none;top=0;left=0;bottom=0;right=0;" vertex="1" parent="hCwhT7J0eq9PJbnfBHn2-6">
          <mxGeometry width="30" height="30" as="geometry">
            <mxRectangle width="30" height="30" as="alternateBounds" />
          </mxGeometry>
        </mxCell>
        <mxCell id="hCwhT7J0eq9PJbnfBHn2-8" value="userId  String" style="shape=partialRectangle;overflow=hidden;connectable=0;fillColor=none;top=0;left=0;bottom=0;right=0;align=left;spacingLeft=6;" vertex="1" parent="hCwhT7J0eq9PJbnfBHn2-6">
          <mxGeometry x="30" width="220" height="30" as="geometry">
            <mxRectangle width="220" height="30" as="alternateBounds" />
          </mxGeometry>
        </mxCell>
        <mxCell id="hCwhT7J0eq9PJbnfBHn2-9" value="" style="shape=partialRectangle;collapsible=0;dropTarget=0;pointerEvents=0;fillColor=none;points=[[0,0.5],[1,0.5]];portConstraint=eastwest;top=0;left=0;right=0;bottom=0;" vertex="1" parent="hCwhT7J0eq9PJbnfBHn2-2">
          <mxGeometry y="90" width="250" height="30" as="geometry" />
        </mxCell>
        <mxCell id="hCwhT7J0eq9PJbnfBHn2-10" value="" style="shape=partialRectangle;overflow=hidden;connectable=0;fillColor=none;top=0;left=0;bottom=0;right=0;" vertex="1" parent="hCwhT7J0eq9PJbnfBHn2-9">
          <mxGeometry width="30" height="30" as="geometry">
            <mxRectangle width="30" height="30" as="alternateBounds" />
          </mxGeometry>
        </mxCell>
        <mxCell id="hCwhT7J0eq9PJbnfBHn2-11" value="s" style="shape=partialRectangle;overflow=hidden;connectable=0;fillColor=none;top=0;left=0;bottom=0;right=0;align=left;spacingLeft=6;" vertex="1" parent="hCwhT7J0eq9PJbnfBHn2-9">
          <mxGeometry x="30" width="220" height="30" as="geometry">
            <mxRectangle width="220" height="30" as="alternateBounds" />
          </mxGeometry>
        </mxCell>
        <mxCell id="hCwhT7J0eq9PJbnfBHn2-12" value="callers" style="shape=table;startSize=30;container=1;collapsible=1;childLayout=tableLayout;fixedRows=1;rowLines=0;fontStyle=1;align=center;resizeLast=1;" vertex="1" parent="YwHavedRDH5448tyT3XH-1">
          <mxGeometry x="650" y="175" width="250" height="130" as="geometry" />
        </mxCell>
        <mxCell id="hCwhT7J0eq9PJbnfBHn2-13" value="" style="shape=partialRectangle;collapsible=0;dropTarget=0;pointerEvents=0;fillColor=none;points=[[0,0.5],[1,0.5]];portConstraint=eastwest;top=0;left=0;right=0;bottom=1;" vertex="1" parent="hCwhT7J0eq9PJbnfBHn2-12">
          <mxGeometry y="30" width="250" height="30" as="geometry" />
        </mxCell>
        <mxCell id="hCwhT7J0eq9PJbnfBHn2-14" value="PK" style="shape=partialRectangle;overflow=hidden;connectable=0;fillColor=none;top=0;left=0;bottom=0;right=0;fontStyle=1;" vertex="1" parent="hCwhT7J0eq9PJbnfBHn2-13">
          <mxGeometry width="30" height="30" as="geometry">
            <mxRectangle width="30" height="30" as="alternateBounds" />
          </mxGeometry>
        </mxCell>
        <mxCell id="hCwhT7J0eq9PJbnfBHn2-15" value="callerId   String" style="shape=partialRectangle;overflow=hidden;connectable=0;fillColor=none;top=0;left=0;bottom=0;right=0;align=left;spacingLeft=6;fontStyle=5;" vertex="1" parent="hCwhT7J0eq9PJbnfBHn2-13">
          <mxGeometry x="30" width="220" height="30" as="geometry">
            <mxRectangle width="220" height="30" as="alternateBounds" />
          </mxGeometry>
        </mxCell>
        <mxCell id="hCwhT7J0eq9PJbnfBHn2-16" value="" style="shape=partialRectangle;collapsible=0;dropTarget=0;pointerEvents=0;fillColor=none;points=[[0,0.5],[1,0.5]];portConstraint=eastwest;top=0;left=0;right=0;bottom=0;" vertex="1" parent="hCwhT7J0eq9PJbnfBHn2-12">
          <mxGeometry y="60" width="250" height="30" as="geometry" />
        </mxCell>
        <mxCell id="hCwhT7J0eq9PJbnfBHn2-17" value="" style="shape=partialRectangle;overflow=hidden;connectable=0;fillColor=none;top=0;left=0;bottom=0;right=0;" vertex="1" parent="hCwhT7J0eq9PJbnfBHn2-16">
          <mxGeometry width="30" height="30" as="geometry">
            <mxRectangle width="30" height="30" as="alternateBounds" />
          </mxGeometry>
        </mxCell>
        <mxCell id="hCwhT7J0eq9PJbnfBHn2-18" value="name   String" style="shape=partialRectangle;overflow=hidden;connectable=0;fillColor=none;top=0;left=0;bottom=0;right=0;align=left;spacingLeft=6;" vertex="1" parent="hCwhT7J0eq9PJbnfBHn2-16">
          <mxGeometry x="30" width="220" height="30" as="geometry">
            <mxRectangle width="220" height="30" as="alternateBounds" />
          </mxGeometry>
        </mxCell>
        <mxCell id="hCwhT7J0eq9PJbnfBHn2-19" value="" style="shape=partialRectangle;collapsible=0;dropTarget=0;pointerEvents=0;fillColor=none;points=[[0,0.5],[1,0.5]];portConstraint=eastwest;top=0;left=0;right=0;bottom=0;" vertex="1" parent="hCwhT7J0eq9PJbnfBHn2-12">
          <mxGeometry y="90" width="250" height="30" as="geometry" />
        </mxCell>
        <mxCell id="hCwhT7J0eq9PJbnfBHn2-20" value="" style="shape=partialRectangle;overflow=hidden;connectable=0;fillColor=none;top=0;left=0;bottom=0;right=0;" vertex="1" parent="hCwhT7J0eq9PJbnfBHn2-19">
          <mxGeometry width="30" height="30" as="geometry">
            <mxRectangle width="30" height="30" as="alternateBounds" />
          </mxGeometry>
        </mxCell>
        <mxCell id="hCwhT7J0eq9PJbnfBHn2-21" value="icon    String" style="shape=partialRectangle;overflow=hidden;connectable=0;fillColor=none;top=0;left=0;bottom=0;right=0;align=left;spacingLeft=6;" vertex="1" parent="hCwhT7J0eq9PJbnfBHn2-19">
          <mxGeometry x="30" width="220" height="30" as="geometry">
            <mxRectangle width="220" height="30" as="alternateBounds" />
          </mxGeometry>
        </mxCell>
        <mxCell id="hCwhT7J0eq9PJbnfBHn2-22" value="users" style="shape=table;startSize=30;container=1;collapsible=1;childLayout=tableLayout;fixedRows=1;rowLines=0;fontStyle=1;align=center;resizeLast=1;" vertex="1" parent="YwHavedRDH5448tyT3XH-1">
          <mxGeometry x="-50" y="175" width="250" height="130" as="geometry" />
        </mxCell>
        <mxCell id="hCwhT7J0eq9PJbnfBHn2-23" value="" style="shape=partialRectangle;collapsible=0;dropTarget=0;pointerEvents=0;fillColor=none;points=[[0,0.5],[1,0.5]];portConstraint=eastwest;top=0;left=0;right=0;bottom=1;" vertex="1" parent="hCwhT7J0eq9PJbnfBHn2-22">
          <mxGeometry y="30" width="250" height="30" as="geometry" />
        </mxCell>
        <mxCell id="hCwhT7J0eq9PJbnfBHn2-24" value="PK" style="shape=partialRectangle;overflow=hidden;connectable=0;fillColor=none;top=0;left=0;bottom=0;right=0;fontStyle=1;" vertex="1" parent="hCwhT7J0eq9PJbnfBHn2-23">
          <mxGeometry width="30" height="30" as="geometry">
            <mxRectangle width="30" height="30" as="alternateBounds" />
          </mxGeometry>
        </mxCell>
        <mxCell id="hCwhT7J0eq9PJbnfBHn2-25" value="userId String" style="shape=partialRectangle;overflow=hidden;connectable=0;fillColor=none;top=0;left=0;bottom=0;right=0;align=left;spacingLeft=6;fontStyle=5;" vertex="1" parent="hCwhT7J0eq9PJbnfBHn2-23">
          <mxGeometry x="30" width="220" height="30" as="geometry">
            <mxRectangle width="220" height="30" as="alternateBounds" />
          </mxGeometry>
        </mxCell>
        <mxCell id="hCwhT7J0eq9PJbnfBHn2-26" value="" style="shape=partialRectangle;collapsible=0;dropTarget=0;pointerEvents=0;fillColor=none;points=[[0,0.5],[1,0.5]];portConstraint=eastwest;top=0;left=0;right=0;bottom=0;" vertex="1" parent="hCwhT7J0eq9PJbnfBHn2-22">
          <mxGeometry y="60" width="250" height="30" as="geometry" />
        </mxCell>
        <mxCell id="hCwhT7J0eq9PJbnfBHn2-27" value="" style="shape=partialRectangle;overflow=hidden;connectable=0;fillColor=none;top=0;left=0;bottom=0;right=0;" vertex="1" parent="hCwhT7J0eq9PJbnfBHn2-26">
          <mxGeometry width="30" height="30" as="geometry">
            <mxRectangle width="30" height="30" as="alternateBounds" />
          </mxGeometry>
        </mxCell>
        <mxCell id="hCwhT7J0eq9PJbnfBHn2-28" value="name String" style="shape=partialRectangle;overflow=hidden;connectable=0;fillColor=none;top=0;left=0;bottom=0;right=0;align=left;spacingLeft=6;" vertex="1" parent="hCwhT7J0eq9PJbnfBHn2-26">
          <mxGeometry x="30" width="220" height="30" as="geometry">
            <mxRectangle width="220" height="30" as="alternateBounds" />
          </mxGeometry>
        </mxCell>
        <mxCell id="hCwhT7J0eq9PJbnfBHn2-39" style="shape=partialRectangle;collapsible=0;dropTarget=0;pointerEvents=0;fillColor=none;points=[[0,0.5],[1,0.5]];portConstraint=eastwest;top=0;left=0;right=0;bottom=0;" vertex="1" parent="hCwhT7J0eq9PJbnfBHn2-22">
          <mxGeometry y="90" width="250" height="30" as="geometry" />
        </mxCell>
        <mxCell id="hCwhT7J0eq9PJbnfBHn2-40" style="shape=partialRectangle;overflow=hidden;connectable=0;fillColor=none;top=0;left=0;bottom=0;right=0;" vertex="1" parent="hCwhT7J0eq9PJbnfBHn2-39">
          <mxGeometry width="30" height="30" as="geometry">
            <mxRectangle width="30" height="30" as="alternateBounds" />
          </mxGeometry>
        </mxCell>
        <mxCell id="hCwhT7J0eq9PJbnfBHn2-41" value="icon  String" style="shape=partialRectangle;overflow=hidden;connectable=0;fillColor=none;top=0;left=0;bottom=0;right=0;align=left;spacingLeft=6;" vertex="1" parent="hCwhT7J0eq9PJbnfBHn2-39">
          <mxGeometry x="30" width="220" height="30" as="geometry">
            <mxRectangle width="220" height="30" as="alternateBounds" />
          </mxGeometry>
        </mxCell>
        <mxCell id="hCwhT7J0eq9PJbnfBHn2-37" value="（答える）" style="edgeStyle=orthogonalEdgeStyle;rounded=0;orthogonalLoop=1;jettySize=auto;html=1;entryX=1;entryY=0.5;entryDx=0;entryDy=0;endArrow=oval;endFill=1;" edge="1" parent="YwHavedRDH5448tyT3XH-1" source="hCwhT7J0eq9PJbnfBHn2-30" target="hCwhT7J0eq9PJbnfBHn2-32">
          <mxGeometry relative="1" as="geometry" />
        </mxCell>
        <mxCell id="hCwhT7J0eq9PJbnfBHn2-30" value="callers" style="rounded=0;whiteSpace=wrap;html=1;align=left;" vertex="1" parent="YwHavedRDH5448tyT3XH-1">
          <mxGeometry x="650" y="-120" width="120" height="110" as="geometry" />
        </mxCell>
        <mxCell id="hCwhT7J0eq9PJbnfBHn2-35" style="edgeStyle=orthogonalEdgeStyle;rounded=0;orthogonalLoop=1;jettySize=auto;html=1;entryX=0;entryY=0.5;entryDx=0;entryDy=0;endArrow=oval;endFill=1;" edge="1" parent="YwHavedRDH5448tyT3XH-1" source="hCwhT7J0eq9PJbnfBHn2-31" target="hCwhT7J0eq9PJbnfBHn2-32">
          <mxGeometry relative="1" as="geometry" />
        </mxCell>
        <mxCell id="hCwhT7J0eq9PJbnfBHn2-36" value="作成する&lt;br&gt;（質問する）" style="edgeLabel;html=1;align=center;verticalAlign=middle;resizable=0;points=[];" vertex="1" connectable="0" parent="hCwhT7J0eq9PJbnfBHn2-35">
          <mxGeometry x="0.0818" y="1" relative="1" as="geometry">
            <mxPoint as="offset" />
          </mxGeometry>
        </mxCell>
        <mxCell id="hCwhT7J0eq9PJbnfBHn2-31" value="users" style="rounded=0;whiteSpace=wrap;html=1;align=left;" vertex="1" parent="YwHavedRDH5448tyT3XH-1">
          <mxGeometry x="60" y="-120" width="120" height="110" as="geometry" />
        </mxCell>
        <mxCell id="hCwhT7J0eq9PJbnfBHn2-32" value="inquiries" style="rounded=0;whiteSpace=wrap;html=1;align=left;" vertex="1" parent="YwHavedRDH5448tyT3XH-1">
          <mxGeometry x="354" y="-120" width="120" height="110" as="geometry" />
        </mxCell>
        <mxCell id="hCwhT7J0eq9PJbnfBHn2-33" value="messages" style="rounded=0;whiteSpace=wrap;html=1;align=left;" vertex="1" parent="YwHavedRDH5448tyT3XH-1">
          <mxGeometry x="520" y="-50" width="74" height="40" as="geometry" />
        </mxCell>
        <mxCell id="hCwhT7J0eq9PJbnfBHn2-38" value="messages" style="rounded=0;whiteSpace=wrap;html=1;align=left;" vertex="1" parent="YwHavedRDH5448tyT3XH-1">
          <mxGeometry x="240" y="-40" width="74" height="40" as="geometry" />
        </mxCell>
      </root>
    </mxGraphModel>
  </diagram>
</mxfile>
